<?xml version="1.0" encoding="utf-8"?>
<!-- Generator: Adobe Illustrator 17.1.0, SVG Export Plug-In . SVG Version: 6.00 Build 0)  -->
<!DOCTYPE svg PUBLIC "-//W3C//DTD SVG 1.1//EN" "http://www.w3.org/Graphics/SVG/1.1/DTD/svg11.dtd">
<svg version="1.1" id="Layer_1" xmlns="http://www.w3.org/2000/svg" xmlns:xlink="http://www.w3.org/1999/xlink" x="0px" y="0px"
	 viewBox="0 0 112 49" enable-background="new 0 0 112 49" xml:space="preserve">
<path fill-rule="evenodd" clip-rule="evenodd" fill="none" d="M87.1,32.8"/>
<path fill-rule="evenodd" clip-rule="evenodd" fill="#ECECEC" d="M106.5,17.1c0-4.8-1.9-5.7-5-5.7c-2.9,0-3.8,1.4-3.8,4.2
	c-0.1,8,14.6,3.2,14.3,17.6c-0.1,6-4,10.1-10.9,10.1c-8.1,0-11.6-5.2-11-12.5h5.4c-0.5,5.5,2.5,6.8,5.4,6.8c2.5,0,4.4-1,4.5-4.3
	c0.2-8.2-14.5-4-14.3-17.8c0.1-6.8,4.8-9.8,10.6-9.8c9.3,0,10.4,7.1,10.2,11.4H106.5z M80.7,42.2V6.8v0h6.3v35.6h-6.3V42.2z
	 M76.3,23.9l0,0.4v14.8h-0.4c-2.3,2.4-6.1,4.2-9.4,4.2c-5.5,0-12.1-2.7-12.1-12.4c0-3.9,0-10.2,0-11.5c0-9,5-13.7,11.9-13.7
	c7.5,0,9.4,4.9,10,9v3v0.5h-5.5v-1.7c-0.3-3.9-2-5.2-4.8-5.2c-2.9,0-5.1,2.3-5.1,8.5v10.3c0.2,9.3,7.8,7.6,9.8,5.4l0-5.9l-5.3,0l0,0
	h-0.2v-5.7h0l0,0H76.3z"/>
<path fill="#9CBF3C" d="M43.4,11.4c0.7,1.5,1.1,3.2,1.1,5c0,8.8-8.8,15.9-13.9,20.4h13.3c2-3.6,3.2-7.8,3.2-12.2
	C47.1,19.7,45.7,15.2,43.4,11.4z"/>
<path fill="#9CBF3C" d="M20.9,42.2v-4.1C31,29,37.9,23,37.9,17c0-2.2-1.6-6.1-5.2-6.1c-2.9,0-5.7,2.2-5.2,9.5h-5.2
	c-1.5-8.5,2.7-15,11.1-15c3.3,0,5.9,1.1,7.8,2.8C36.8,3.2,30.6,0,23.5,0C10.5,0,0,11,0,24.5C0,38,10.5,49,23.5,49
	c6.3,0,12-2.6,16.3-6.8H20.9z"/>
</svg>
