<?xml version="1.0" encoding="utf-8"?>
<!-- Generator: Adobe Illustrator 17.1.0, SVG Export Plug-In . SVG Version: 6.00 Build 0)  -->
<!DOCTYPE svg PUBLIC "-//W3C//DTD SVG 1.1//EN" "http://www.w3.org/Graphics/SVG/1.1/DTD/svg11.dtd">
<svg version="1.1" id="Layer_1" xmlns="http://www.w3.org/2000/svg" xmlns:xlink="http://www.w3.org/1999/xlink" x="0px" y="0px"
	 width="70px" height="31px" viewBox="0 0 70 31" enable-background="new 0 0 70 31" xml:space="preserve">
<g>
	<g>
		<path fill="#393939" d="M27.8,10.3c0,5.6-5.5,10.1-8.7,12.9h8.3c1.3-2.3,2-4.9,2-7.7c0-3-0.8-5.8-2.3-8.2
			C27.6,8.2,27.8,9.2,27.8,10.3z M13.1,24.1c6.3-5.8,10.6-9.6,10.6-13.3c0-1.4-1-3.9-3.3-3.9c-1.8,0-3.6,1.4-3.3,6h-3.3
			c-0.9-5.3,1.7-9.5,6.9-9.5c2,0,3.6,0.6,4.8,1.7C22.9,2,19,0,14.7,0C6.6,0,0,6.9,0,15.5C0,24.1,6.6,31,14.7,31
			c3.9,0,7.5-1.6,10.2-4.3H13.1V24.1z M63.4,7.2c1.9,0,3.1,0.6,3.1,3.6H70c0.1-2.7-0.6-7.2-6.4-7.2C60,3.6,57,5.5,57,9.8
			c-0.2,8.7,9.1,6,8.9,11.2c-0.1,2.1-1.2,2.7-2.8,2.7c-1.9,0-3.7-0.8-3.4-4.3h-3.4c-0.4,4.6,1.8,7.9,6.8,7.9c4.3,0,6.8-2.6,6.8-6.4
			c0.2-9.1-9-6-8.9-11.1C61.1,8.1,61.6,7.2,63.4,7.2z M40.8,15.1L40.8,15.1l0,3.6H41l0,0l3.3,0l0,3.8c-1.3,1.4-6,2.5-6.2-3.4v-6.5
			c0-3.9,1.3-5.3,3.2-5.3c1.7,0,2.8,0.8,3,3.3v1h3.4V9.3c-0.4-2.6-1.6-5.7-6.2-5.7c-4.3,0-7.4,2.9-7.4,8.6c0,0.8,0,4.8,0,7.3
			c0,6.2,4.1,7.9,7.6,7.9c2,0,4.5-1.2,5.9-2.6h0.3v-9.4l0-0.2L40.8,15.1L40.8,15.1z M50.4,26.9h4V4.3h-4V26.9z"/>
	</g>
</g>
</svg>
