<?xml version="1.0" encoding="utf-8"?>
<!-- Generator: Adobe Illustrator 17.1.0, SVG Export Plug-In . SVG Version: 6.00 Build 0)  -->
<!DOCTYPE svg PUBLIC "-//W3C//DTD SVG 1.1//EN" "http://www.w3.org/Graphics/SVG/1.1/DTD/svg11.dtd">
<svg version="1.1" id="Layer_1" xmlns="http://www.w3.org/2000/svg" xmlns:xlink="http://www.w3.org/1999/xlink" x="0px" y="0px"
	 width="37px" height="26px" viewBox="0 0 37 26" enable-background="new 0 0 37 26" xml:space="preserve">
<path fill="#3F95D1" d="M34.6,0H2.5C1.2,0,0,1.1,0,2.4v21.1C0,24.9,1.2,26,2.5,26h32.1c1.3,0,2.4-1.1,2.4-2.4V2.4
	C37,1.1,35.9,0,34.6,0z M4.3,2.6h28.6c1.1,0,1.6,0.6,1.6,1.8v1.9h-32V4.5C2.5,2.9,3,2.6,4.3,2.6z M32.9,23.4H4.3
	c-1.1,0-1.8-0.5-1.8-1.7v-8.4h32v8.4C34.5,22.9,34,23.4,32.9,23.4z"/>
</svg>
