<?xml version="1.0" encoding="utf-8"?>
<!-- Generator: Adobe Illustrator 17.1.0, SVG Export Plug-In . SVG Version: 6.00 Build 0)  -->
<!DOCTYPE svg PUBLIC "-//W3C//DTD SVG 1.1//EN" "http://www.w3.org/Graphics/SVG/1.1/DTD/svg11.dtd">
<svg version="1.1" id="Layer_1" xmlns="http://www.w3.org/2000/svg" xmlns:xlink="http://www.w3.org/1999/xlink" x="0px" y="0px"
	 viewBox="0 0 25 27" enable-background="new 0 0 25 27" xml:space="preserve">
<g>
	<path fill="#FFFFFF" d="M13.1,17.1c-0.6-0.6-1.7-0.6-2.3,0l-3.4,3.5c-0.6,0.6-0.6,1.7,0,2.4C8,23.6,9,23.6,9.6,23l3.4-3.5
		C13.7,18.8,13.7,17.8,13.1,17.1z M9.6,13.6c-0.6-0.6-1.7-0.6-2.3,0l-3.4,3.5c-0.6,0.6-0.6,1.7,0,2.4c0.6,0.6,1.7,0.6,2.3,0l3.4-3.5
		C10.3,15.3,10.3,14.2,9.6,13.6z M6.2,10c-0.6-0.6-1.7-0.6-2.3,0l-3.4,3.5c-0.6,0.6-0.6,1.7,0,2.4c0.6,0.6,1.7,0.6,2.3,0l3.4-3.5
		C6.8,11.8,6.8,10.7,6.2,10z M14.2,20.6l-3.4,3.5c-0.6,0.6-0.6,1.7,0,2.4c0.6,0.6,1.7,0.6,2.3,0l3.4-3.5c0.6-0.6,0.6-1.7,0-2.4
		C15.9,20,14.8,20,14.2,20.6z"/>
	<path fill="#FFFFFF" d="M24.5,5.3c0,0,1.1-1.2,0-2.4c-1.1-1.2,0,0-1.1-1.2c-1.1-1.2-2.3,0-2.3,0l-5.7,5.9c0,0-1.1,1.2-2.3,0
		c-0.3-0.3-0.7-0.7-1.1-1.2c-2.3-2.4-4.6,0-4.6,0L6.2,7.7l3.4,3.5l1.6,1.6l0.7,0.7l1.1,1.2l2.3,2.4l1.1,1.2l2.3,2.4l1.1-1.2
		c0,0,2.3-2.4,0-4.7c-0.5-0.5-0.8-0.9-1.1-1.2c-1.1-1.2,0-2.4,0-2.4L24.5,5.3z M21.6,2.3c0.3-0.3,0.8-0.3,1.1,0
		c0.3,0.3,0.3,0.9,0,1.2c-0.3,0.3-0.8,0.3-1.1,0C21.3,3.1,21.3,2.6,21.6,2.3z"/>
	<path fill="#474746" d="M6.2,8.8c-0.6-0.6-1.7-0.6-2.3,0l-3.4,3.5c-0.6,0.6-0.6,1.7,0,2.4c0.6,0.6,1.7,0.6,2.3,0l3.4-3.5
		C6.8,10.5,6.8,9.4,6.2,8.8z M9.6,12.3c-0.6-0.6-1.7-0.6-2.3,0l-3.4,3.5c-0.6,0.6-0.6,1.7,0,2.4c0.6,0.6,1.7,0.6,2.3,0l3.4-3.5
		C10.3,14,10.3,12.9,9.6,12.3z M24.5,4.1c0,0,1.1-1.2,0-2.4c-1.1-1.2,0,0-1.1-1.2c-1.1-1.2-2.3,0-2.3,0l-5.7,5.9c0,0-1.1,1.2-2.3,0
		c-0.3-0.3-0.7-0.7-1.1-1.2c-2.3-2.4-4.6,0-4.6,0L6.2,6.4l3.4,3.5l1.6,1.6l0.7,0.7l1.1,1.2l2.3,2.4l1.1,1.2l2.3,2.4l1.1-1.2
		c0,0,2.3-2.4,0-4.7c-0.5-0.5-0.8-0.9-1.1-1.2c-1.1-1.2,0-2.4,0-2.4L24.5,4.1z M21.6,2.3c0.3-0.3,0.8-0.3,1.1,0
		c0.3,0.3,0.3,0.9,0,1.2c-0.3,0.3-0.8,0.3-1.1,0C21.3,3.1,21.3,2.6,21.6,2.3z M14.2,19.3l-3.4,3.5c-0.6,0.6-0.6,1.7,0,2.4
		c0.6,0.6,1.7,0.6,2.3,0l3.4-3.5c0.6-0.6,0.6-1.7,0-2.4C15.9,18.7,14.8,18.7,14.2,19.3z M13.1,15.8c-0.6-0.6-1.7-0.6-2.3,0l-3.4,3.5
		c-0.6,0.6-0.6,1.7,0,2.4c0.6,0.6,1.7,0.6,2.3,0l3.4-3.5C13.7,17.5,13.7,16.5,13.1,15.8z"/>
	<g>
		<path fill="#2F2F30" d="M7.3,6.6c0,0,2.3-2.4,4.6,0c0.5,0.5,0.8,0.9,1.1,1.2c1.1,1.2,2.3,0,2.3,0l5.7-5.9c0,0,1.1-1.2,2.3,0
			c1.1,1.2,0,0,1.1,1.2c0.1,0.1,0.3,0.3,0.3,0.4c0.2-0.5,0.4-1.1-0.3-1.9c-1.1-1.2,0,0-1.1-1.2c-1.1-1.2-2.3,0-2.3,0l-5.7,5.9
			c0,0-1.1,1.2-2.3,0c-0.3-0.3-0.7-0.7-1.1-1.2c-2.3-2.4-4.6,0-4.6,0L6.2,6.4l0.7,0.7L7.3,6.6z"/>
		<path fill="#2F2F30" d="M13.1,15.8c-0.6-0.6-1.7-0.6-2.3,0l-3.4,3.5c-0.5,0.5-0.6,1.3-0.3,1.9c0.1-0.2,0.2-0.3,0.3-0.5l3.4-3.5
			c0.6-0.6,1.7-0.6,2.3,0c0.1,0.1,0.2,0.3,0.3,0.5C13.6,17.1,13.5,16.3,13.1,15.8z"/>
		<path fill="#2F2F30" d="M14.2,19.3l-3.4,3.5c-0.5,0.5-0.6,1.3-0.3,1.9c0.1-0.2,0.2-0.3,0.3-0.5l3.4-3.5c0.6-0.6,1.7-0.6,2.3,0
			c0.1,0.1,0.2,0.3,0.3,0.5c0.3-0.6,0.2-1.4-0.3-1.9C15.9,18.7,14.8,18.7,14.2,19.3z"/>
		<path fill="#2F2F30" d="M18.8,12.3c-0.1-0.1-0.3-0.3-0.3-0.4c-0.2,0.5-0.4,1.1,0.3,1.9c0.3,0.3,0.7,0.7,1.1,1.2
			c0.5,0.5,0.8,1.1,0.9,1.6c0.2-0.8,0.1-1.9-0.9-3C19.4,13,19.1,12.6,18.8,12.3z"/>
		<path fill="#2F2F30" d="M0.5,13.7l3.4-3.5c0.6-0.6,1.7-0.6,2.3,0c0.1,0.1,0.2,0.3,0.3,0.5C6.8,10,6.7,9.3,6.2,8.8
			c-0.6-0.6-1.7-0.6-2.3,0l-3.4,3.5c-0.5,0.5-0.6,1.3-0.3,1.9C0.2,14,0.3,13.8,0.5,13.7z"/>
		<path fill="#2F2F30" d="M7.3,13.7c0.6-0.6,1.7-0.6,2.3,0c0.1,0.1,0.2,0.3,0.3,0.5c0.3-0.6,0.2-1.4-0.3-1.9c-0.6-0.6-1.7-0.6-2.3,0
			l-3.4,3.5c-0.5,0.5-0.6,1.3-0.3,1.9c0.1-0.2,0.2-0.3,0.3-0.5L7.3,13.7z"/>
	</g>
	<path fill="#2F2F30" d="M18.3,10.8c0,0-0.8,1.5,0.2,2.6l0.5-0.8C19.1,12.6,18,11.8,18.3,10.8z"/>
	<path fill="#2F2F30" d="M22.8,3.5c-0.3,0.3-0.8,0.3-1.1,0c-0.2-0.2-0.2-0.4-0.2-0.6h0v1h0c0,0.2,0.1,0.4,0.2,0.5
		c0.3,0.3,0.8,0.3,1.2,0C22.9,4.3,23,4.1,23,3.9V3C23,3.1,22.9,3.3,22.8,3.5z"/>
</g>
</svg>
