<?xml version="1.0" encoding="utf-8"?>
<!-- Generator: Adobe Illustrator 17.1.0, SVG Export Plug-In . SVG Version: 6.00 Build 0)  -->
<!DOCTYPE svg PUBLIC "-//W3C//DTD SVG 1.1//EN" "http://www.w3.org/Graphics/SVG/1.1/DTD/svg11.dtd">
<svg version="1.1" id="Layer_1" xmlns="http://www.w3.org/2000/svg" xmlns:xlink="http://www.w3.org/1999/xlink" x="0px" y="0px"
	 viewBox="0 0 25 25" enable-background="new 0 0 25 25" xml:space="preserve">
<path fill="#FFFFFF" d="M24.5,3.8c0,0,1.1-1.1,0-2.2c-1.1-1.1,0,0-1.1-1.1c-1.1-1.1-2.2,0-2.2,0l-5.6,5.6c0,0-1.1,1.1-2.2,0
	c-0.3-0.3-0.7-0.7-1.1-1.1C10,2.7,7.8,5,7.8,5L6.7,6.1l2.2,2.2L10,9.4l1.6,1.6l0.7,0.7l1.1,1.1l2.2,2.2l1.1,1.1l2.2,2.2l1.1-1.1
	c0,0,2.2-2.2,0-4.5c-0.5-0.5-0.8-0.8-1.1-1.1c-1.1-1.1,0-2.2,0-2.2L24.5,3.8z M21.7,2.2c0.3-0.3,0.8-0.3,1.1,0
	c0.3,0.3,0.3,0.8,0,1.1c-0.3,0.3-0.8,0.3-1.1,0C21.4,3,21.4,2.5,21.7,2.2z"/>
<g>
	<path fill="#FFFFFF" d="M0.7,12c-0.4,0.4-0.4,1,0,1.4l0.8,0.8c0.4,0.4,1,0.4,1.4,0l4.2-4.2c0.4-0.4,0.4-1,0-1.4L6.3,7.9
		c-0.4-0.4-1-0.4-1.4,0L0.7,12z"/>
</g>
<g>
	<path fill="#FFFFFF" d="M4,15.4c-0.4,0.4-0.4,1,0,1.4l0.8,0.8c0.4,0.4,1,0.4,1.4,0l4.2-4.2c0.4-0.4,0.4-1,0-1.4l-0.8-0.8
		c-0.4-0.4-1-0.4-1.4,0L4,15.4z"/>
</g>
<g>
	<path fill="#FFFFFF" d="M7.4,18.7c-0.4,0.4-0.4,1,0,1.4L8.2,21c0.4,0.4,1,0.4,1.4,0l4.2-4.2c0.4-0.4,0.4-1,0-1.4L13,14.6
		c-0.4-0.4-1-0.4-1.4,0L7.4,18.7z"/>
</g>
<g>
	<path fill="#FFFFFF" d="M10.7,22.1c-0.4,0.4-0.4,1,0,1.4l0.8,0.8c0.4,0.4,1,0.4,1.4,0l4.2-4.2c0.4-0.4,0.4-1,0-1.4l-0.8-0.8
		c-0.4-0.4-1-0.4-1.4,0L10.7,22.1z"/>
</g>
</svg>
