<?xml version="1.0" encoding="utf-8"?>
<!-- Generator: Adobe Illustrator 17.1.0, SVG Export Plug-In . SVG Version: 6.00 Build 0)  -->
<!DOCTYPE svg PUBLIC "-//W3C//DTD SVG 1.1//EN" "http://www.w3.org/Graphics/SVG/1.1/DTD/svg11.dtd">
<svg version="1.1" id="Layer_1" xmlns="http://www.w3.org/2000/svg" xmlns:xlink="http://www.w3.org/1999/xlink" x="0px" y="0px"
	 viewBox="0 0 12 12" enable-background="new 0 0 12 12" xml:space="preserve">
<g>
	<g>
		<path fill-rule="evenodd" clip-rule="evenodd" fill="#A09F9F" d="M5,9l4-3L5,3v2H0v2h5V9z M9.6,0H2.4C1.1,0,0,1.1,0,2.4V4h2V3.6
			C2,2.7,2.7,2,3.6,2h4.8C9.3,2,10,2.7,10,3.6v4.8C10,9.3,9.3,10,8.4,10H3.6C2.7,10,2,9.3,2,8.4V8H0v1.6C0,10.9,1.1,12,2.4,12h7.2
			c1.3,0,2.4-1.1,2.4-2.4V2.4C12,1.1,10.9,0,9.6,0z"/>
	</g>
</g>
</svg>
