<?xml version="1.0" encoding="utf-8"?>
<!-- Generator: Adobe Illustrator 17.1.0, SVG Export Plug-In . SVG Version: 6.00 Build 0)  -->
<!DOCTYPE svg PUBLIC "-//W3C//DTD SVG 1.1//EN" "http://www.w3.org/Graphics/SVG/1.1/DTD/svg11.dtd">
<svg version="1.1" id="Layer_1" xmlns="http://www.w3.org/2000/svg" xmlns:xlink="http://www.w3.org/1999/xlink" x="0px" y="0px"
	 viewBox="0 0 15 29" enable-background="new 0 0 15 29" xml:space="preserve">
<g>
	<rect x="4.6" y="27" fill="#FFFFFF" width="5.1" height="2"/>
	<rect y="13.8" fill="#FFFFFF" width="4.6" height="2"/>
	<rect x="9.6" y="13.8" fill="#FFFFFF" width="5.4" height="2"/>
	<path fill="#FFFFFF" d="M9.6,6.3v2c0-0.9,0.6-1.6,1.1-1.6H15v-2h-4.3C10.2,4.7,9.6,5.4,9.6,6.3z"/>
</g>
<path fill="#484747" d="M15,4.7h-4.3c-0.5,0-1.1,0.7-1.1,1.6v3.1H15v4.4H9.6V27H4.6V13.8H0V9.3h4.6V6.8C4.6,3,7.2,0,10.7,0H15V4.7z"
	/>
<g opacity="0.3">
	<rect x="0" y="9.4" width="4.6" height="2"/>
	<rect x="9.6" y="9.4" width="5.4" height="2"/>
	<path d="M10.7,0C7.2,0,4.6,3,4.6,6.8v2C4.6,5,7.2,2,10.7,2H15V0H10.7z"/>
</g>
</svg>
