<?xml version="1.0" encoding="utf-8"?>
<!-- Generator: Adobe Illustrator 17.1.0, SVG Export Plug-In . SVG Version: 6.00 Build 0)  -->
<!DOCTYPE svg PUBLIC "-//W3C//DTD SVG 1.1//EN" "http://www.w3.org/Graphics/SVG/1.1/DTD/svg11.dtd">
<svg version="1.1" id="Layer_1" xmlns="http://www.w3.org/2000/svg" xmlns:xlink="http://www.w3.org/1999/xlink" x="0px" y="0px"
	 width="17px" height="29px" viewBox="0 0 17 29" enable-background="new 0 0 17 29" xml:space="preserve">
<g>
	<path fill="#DEDDDD" d="M8.3,6c-1.7,0-3,1.4-3,3c0,0.3,0.1,0.6,0.2,0.9C5.8,8.7,7,7.8,8.3,7.8c1.4,0,2.5,0.9,2.9,2.1
		c0.1-0.3,0.2-0.6,0.2-0.9C11.3,7.4,10,6,8.3,6z"/>
	<path fill="#DEDDDD" d="M8.5,27.2C6.9,24,0.7,13.1,0.1,9.1C0,9.5,0,9.9,0,10.3C0,13.7,6.8,25.6,8.5,29c1.7-3.4,8.5-15.3,8.5-18.7
		c0-0.4,0-0.8-0.1-1.2C16.3,13.1,10.1,24,8.5,27.2z"/>
</g>
<path fill="#474646" d="M8.5,0C5.1,0,0,1.7,0,8.5c0,3.4,6.8,15.3,8.5,18.7C10.2,23.8,17,11.9,17,8.5C17,1.7,11.9,0,8.5,0z M8.3,12.1
	c-1.7,0-3-1.4-3-3c0-1.7,1.4-3,3-3s3,1.4,3,3C11.3,10.7,10,12.1,8.3,12.1z"/>
<g opacity="0.3">
	<path fill="#010101" d="M8.5,1.9c3.2,0,7.8,1.5,8.4,7.2C17,8.9,17,8.7,17,8.5C17,1.7,11.9,0,8.5,0S0,1.7,0,8.5c0,0.2,0,0.4,0.1,0.6
		C0.7,3.4,5.3,1.9,8.5,1.9z"/>
	<path fill="#010101" d="M8.3,14c1.7,0,3-1.4,3-3c0-0.3-0.1-0.6-0.2-1c-0.4,1.2-1.5,2.1-2.9,2.1S5.9,11.2,5.5,10
		c-0.1,0.3-0.2,0.6-0.2,1C5.3,12.6,6.6,14,8.3,14z"/>
</g>
</svg>
