<?xml version="1.0" encoding="utf-8"?>
<!-- Generator: Adobe Illustrator 17.1.0, SVG Export Plug-In . SVG Version: 6.00 Build 0)  -->
<!DOCTYPE svg PUBLIC "-//W3C//DTD SVG 1.1//EN" "http://www.w3.org/Graphics/SVG/1.1/DTD/svg11.dtd">
<svg version="1.1" id="Layer_1" xmlns="http://www.w3.org/2000/svg" xmlns:xlink="http://www.w3.org/1999/xlink" x="0px" y="0px"
	 width="29px" height="20px" viewBox="0 0 29 20" enable-background="new 0 0 29 20" xml:space="preserve">
<g>
	<g>
		<path fill="#474746" d="M26.4,15H26V2.3C26,1,24.7,0,23.4,0H17h-5H5.3C4,0,3,1,3,2.3V15H2.3C1,15,0,16,0,17.3V19h29v-1.7
			C29,16,27.7,15,26.4,15z M6,3h6h5h6v12H6V3z"/>
		<path fill="#2F2F30" d="M23.7,0H5.3C4,0,3,1,3,2.3v1C3,2,4,1,5.3,1h18.4C25,1,26,2,26,3.3v-1C26,1,25,0,23.7,0z"/>
		<g>
			<rect x="6" y="15" fill="#2F2F30" width="17" height="1"/>
			<path fill="#2F2F30" d="M3,15H2.3C1,15,0,16,0,17.3v1C0,17,1,16,2.3,16H3V15z"/>
			<path fill="#2F2F30" d="M26.7,15H26v1h0.7c1.3,0,2.3,1,2.3,2.3v-1C29,16,28,15,26.7,15z"/>
		</g>
	</g>
	<rect x="6" y="3" fill="#FFFFFF" width="17" height="1"/>
	<rect y="19" fill="#FFFFFF" width="29" height="1"/>
</g>
</svg>
