<?xml version="1.0" encoding="utf-8"?>
<!-- Generator: Adobe Illustrator 17.1.0, SVG Export Plug-In . SVG Version: 6.00 Build 0)  -->
<!DOCTYPE svg PUBLIC "-//W3C//DTD SVG 1.1//EN" "http://www.w3.org/Graphics/SVG/1.1/DTD/svg11.dtd">
<svg version="1.1" id="Layer_1" xmlns="http://www.w3.org/2000/svg" xmlns:xlink="http://www.w3.org/1999/xlink" x="0px" y="0px"
	 viewBox="0 0 11 20" enable-background="new 0 0 11 20" xml:space="preserve">
<g>
	<polygon fill-rule="evenodd" clip-rule="evenodd" fill="#FDFDFE" points="2,18 1,17 0,18 2,20 11,11 10,10 	"/>
	
		<rect x="-0.7" y="5.8" transform="matrix(0.7071 0.7071 -0.7071 0.7071 5.6213 -0.5712)" fill-rule="evenodd" clip-rule="evenodd" fill="#FDFDFE" width="8.5" height="1.4"/>
</g>
<polygon fill-rule="evenodd" clip-rule="evenodd" fill="#383838" points="9,7 9,7 2,0 0,2 7,9 0,16 2,18 11,9 "/>
<g opacity="0.3">
	<polygon fill-rule="evenodd" clip-rule="evenodd" points="2,2 9,9 9,9 10,10 11,9 9,7 9,7 2,0 0,2 1,3 	"/>
	
		<rect x="2.8" y="9.3" transform="matrix(0.7071 0.7071 -0.7071 0.7071 10.571 1.4791)" fill-rule="evenodd" clip-rule="evenodd" width="1.4" height="8.5"/>
</g>
</svg>
