<?xml version="1.0" encoding="utf-8"?>
<!-- Generator: Adobe Illustrator 17.1.0, SVG Export Plug-In . SVG Version: 6.00 Build 0)  -->
<!DOCTYPE svg PUBLIC "-//W3C//DTD SVG 1.1//EN" "http://www.w3.org/Graphics/SVG/1.1/DTD/svg11.dtd">
<svg version="1.1" id="Layer_1" xmlns="http://www.w3.org/2000/svg" xmlns:xlink="http://www.w3.org/1999/xlink" x="0px" y="0px"
	 width="15px" height="26px" viewBox="0 0 15 26" enable-background="new 0 0 15 26" xml:space="preserve">
<g>
	<g>
		<path fill="#474746" d="M12.8,0H2.2C1,0,0,1,0,2.2v20.5C0,24,1,25,2.2,25h10.5c1.2,0,2.2-1,2.2-2.2V2.2C15,1,14,0,12.8,0z
			 M7.5,23.2c-0.4,0-0.6-0.3-0.6-0.6c0-0.4,0.3-0.6,0.6-0.6s0.6,0.3,0.6,0.6C8.1,22.9,7.8,23.2,7.5,23.2z M12,20H3V3h9V20z"/>
		<path fill="#2F2F30" d="M12.8,0H2.2C1,0,0,1,0,2.2v1C0,2,1,1,2.2,1h10.5C14,1,15,2,15,3.2v-1C15,1,14,0,12.8,0z"/>
		<rect x="3" y="20" fill="#2F2F30" width="9" height="1"/>
		<rect x="3" y="3" fill="#FFFFFF" width="9" height="1"/>
		<path fill="#2F2F30" d="M7.5,23.2c-0.4,0-0.6-0.3-0.6-0.6v1c0,0.4,0.3,0.6,0.6,0.6s0.6-0.3,0.6-0.6v-1C8.1,22.9,7.8,23.2,7.5,23.2
			z"/>
	</g>
	<path fill="#FFFFFF" d="M12.8,25H2.2C1,25,0,24,0,22.8v1C0,25,1,26,2.2,26h10.5c1.2,0,2.2-1,2.2-2.2v-1C15,24,14,25,12.8,25z"/>
</g>
</svg>
