<?xml version="1.0" encoding="utf-8"?>
<!-- Generator: Adobe Illustrator 17.1.0, SVG Export Plug-In . SVG Version: 6.00 Build 0)  -->
<!DOCTYPE svg PUBLIC "-//W3C//DTD SVG 1.1//EN" "http://www.w3.org/Graphics/SVG/1.1/DTD/svg11.dtd">
<svg version="1.1" id="Layer_1" xmlns="http://www.w3.org/2000/svg" xmlns:xlink="http://www.w3.org/1999/xlink" x="0px" y="0px"
	 width="32px" height="34px" viewBox="0 0 32 34" enable-background="new 0 0 32 34" xml:space="preserve">
<g>
	<path fill="#FFFFFF" d="M16,7.4c0.7,0,1.3-0.6,1.3-1.3V4c0,0.7-0.6,1.3-1.3,1.3S14.7,4.7,14.7,4v2C14.7,6.8,15.3,7.4,16,7.4z"/>
	<path fill="#FFFFFF" d="M6.6,10.5c0.5,0.5,1.4,0.5,1.9,0C9,10,9,9.1,8.5,8.6L8.4,8.5C7.9,9,7.1,9,6.6,8.5L4.8,6.7
		c0,0-0.1,0-0.1,0.1c-0.5,0.5-0.5,1.4,0,1.9L6.6,10.5z"/>
	<path fill="#FFFFFF" d="M25.4,10.5l1.9-1.9c0.5-0.5,0.5-1.4,0-1.9c0,0-0.1,0-0.1-0.1l-1.8,1.8C24.9,9,24.1,9,23.6,8.5l-0.1,0.1
		c-0.5,0.5-0.5,1.4,0,1.9C24.1,11,24.9,11,25.4,10.5z"/>
	<path fill="#FFFFFF" d="M5.3,18c0-0.4-0.2-0.8-0.5-1c-0.2,0.2-0.5,0.3-0.8,0.3H1.3c-0.3,0-0.6-0.1-0.8-0.3C0.2,17.2,0,17.6,0,18
		c0,0.7,0.6,1.3,1.3,1.3H4C4.7,19.3,5.3,18.7,5.3,18z"/>
	<path fill="#FFFFFF" d="M27.2,27.4c-0.5,0.5-1.3,0.4-1.8,0l-1.8-1.8c0,0-0.1,0-0.1,0.1c-0.5,0.5-0.5,1.4,0,1.9l1.9,1.9
		c0.5,0.5,1.4,0.5,1.9,0C27.8,28.8,27.8,28,27.2,27.4L27.2,27.4z"/>
	<path fill="#FFFFFF" d="M31.5,17c-0.2,0.2-0.5,0.3-0.8,0.3H28c-0.3,0-0.6-0.1-0.8-0.3c-0.3,0.2-0.5,0.6-0.5,1
		c0,0.7,0.6,1.3,1.3,1.3h2.7c0.7,0,1.3-0.6,1.3-1.3C32,17.6,31.8,17.2,31.5,17z"/>
	<path fill="#FFFFFF" d="M23.9,17c-0.5,3.9-3.8,7-7.9,7c-4.1,0-7.4-3-7.9-7C8,17.3,8,17.7,8,18c0,4.4,3.6,8,8,8c4.4,0,8-3.6,8-8
		C24,17.7,24,17.3,23.9,17z"/>
	<path fill="#FFFFFF" d="M8.4,25.5l-1.8,1.8c-0.5,0.5-1.3,0.5-1.8,0l-0.1,0.1c-0.5,0.5-0.5,1.4,0,1.9c0.5,0.5,1.4,0.5,1.9,0l1.9-1.9
		C9,26.9,9,26.1,8.4,25.5C8.4,25.5,8.4,25.5,8.4,25.5z"/>
	<path fill="#FFFFFF" d="M16,32c-0.7,0-1.3-0.6-1.3-1.3v2c0,0.7,0.6,1.3,1.3,1.3s1.3-0.6,1.3-1.3v-2C17.3,31.4,16.7,32,16,32z"/>
</g>
<path fill-rule="evenodd" clip-rule="evenodd" fill="#474646" d="M30.6,17.3H28c-0.7,0-1.3-0.6-1.3-1.3c0-0.7,0.6-1.3,1.3-1.3h2.7
	c0.7,0,1.3,0.6,1.3,1.3C32,16.7,31.4,17.3,30.6,17.3z M25.4,8.5C24.9,9,24,9,23.5,8.5c-0.5-0.5-0.5-1.4,0-1.9l1.9-1.9
	c0.5-0.5,1.4-0.5,1.9,0c0.5,0.5,0.5,1.4,0,1.9L25.4,8.5z M16,24c-4.4,0-8-3.6-8-8c0-4.4,3.6-8,8-8c4.4,0,8,3.6,8,8
	C24,20.4,20.4,24,16,24z M16,5.3c-0.7,0-1.3-0.6-1.3-1.3V1.3C14.7,0.6,15.2,0,16,0s1.3,0.6,1.3,1.3V4C17.3,4.7,16.7,5.3,16,5.3z
	 M6.6,8.5L4.7,6.6C4.2,6,4.2,5.2,4.7,4.7c0.5-0.5,1.4-0.5,1.9,0l1.9,1.9C9,7.1,9,7.9,8.4,8.5C7.9,9,7.1,9,6.6,8.5z M5.3,16
	c0,0.7-0.6,1.3-1.3,1.3H1.3C0.6,17.3,0,16.7,0,16c0-0.7,0.6-1.3,1.3-1.3H4C4.7,14.7,5.3,15.3,5.3,16z M6.6,23.5
	c0.5-0.5,1.4-0.5,1.9,0C9,24,9,24.9,8.4,25.4l-1.9,1.9c-0.5,0.5-1.4,0.5-1.9,0c-0.5-0.5-0.5-1.4,0-1.9L6.6,23.5z M16,26.6
	c0.7,0,1.3,0.6,1.3,1.3v2.7c0,0.7-0.6,1.3-1.3,1.3s-1.3-0.6-1.3-1.3V28C14.7,27.2,15.2,26.6,16,26.6z M25.4,23.5l1.9,1.9
	c0.5,0.5,0.5,1.4,0,1.9c-0.5,0.5-1.4,0.5-1.9,0l-1.9-1.9c-0.5-0.5-0.5-1.4,0-1.9C24,23,24.9,23,25.4,23.5z"/>
<g opacity="0.3">
	<path d="M16,2c0.7,0,1.3,0.6,1.3,1.3v-2C17.3,0.6,16.7,0,16,0s-1.3,0.6-1.3,1.3v2C14.7,2.6,15.3,2,16,2z"/>
	<path d="M8.1,17c0.5-3.9,3.9-7,7.9-7c4.1,0,7.4,3,7.9,7c0-0.3,0.1-0.7,0.1-1c0-4.4-3.6-8-8-8c-4.4,0-8,3.6-8,8
		C8,16.3,8,16.7,8.1,17z"/>
	<path d="M26.7,16c0,0.4,0.2,0.8,0.5,1c0.2-0.2,0.5-0.3,0.8-0.3h2.7c0.3,0,0.6,0.1,0.8,0.3c0.3-0.2,0.5-0.6,0.5-1
		c0-0.7-0.6-1.3-1.3-1.3H28C27.3,14.7,26.7,15.3,26.7,16z"/>
	<path d="M23.6,8.5l1.8-1.8c0.5-0.5,1.3-0.5,1.8-0.1l0.1-0.1c0.5-0.5,0.5-1.4,0-1.9c-0.5-0.5-1.4-0.5-1.9,0l-1.9,1.9
		C23,7.1,23,7.9,23.6,8.5C23.6,8.5,23.6,8.5,23.6,8.5z"/>
	<path d="M6.6,23.5l-1.9,1.9c-0.5,0.5-0.5,1.4,0,1.9c0,0,0.1,0,0.1,0.1l1.8-1.8c0.5-0.5,1.3-0.5,1.8-0.1l0.1-0.1
		C9,24.9,9,24,8.5,23.5C7.9,23,7.1,23,6.6,23.5z"/>
	<path d="M4.8,6.7c0.5-0.4,1.3-0.4,1.8,0.1l1.8,1.8c0,0,0.1,0,0.1-0.1C9,7.9,9,7.1,8.5,6.6L6.6,4.7c-0.5-0.5-1.4-0.5-1.9,0
		C4.2,5.2,4.2,6,4.8,6.7L4.8,6.7z"/>
	<path d="M16,26.6c-0.7,0-1.3,0.6-1.3,1.3v2c0-0.7,0.6-1.3,1.3-1.3s1.3,0.6,1.3,1.3v-2C17.3,27.2,16.7,26.6,16,26.6z"/>
	<path d="M25.4,23.5c-0.5-0.5-1.4-0.5-1.9,0c-0.5,0.5-0.5,1.4,0,1.9l0.1,0.1c0.5-0.4,1.3-0.4,1.8,0.1l1.8,1.8c0,0,0.1,0,0.1-0.1
		c0.5-0.5,0.5-1.4,0-1.9L25.4,23.5z"/>
	<path d="M0.5,17c0.2-0.2,0.5-0.3,0.8-0.3H4c0.3,0,0.6,0.1,0.8,0.3c0.3-0.2,0.5-0.6,0.5-1c0-0.7-0.6-1.3-1.3-1.3H1.3
		C0.6,14.7,0,15.3,0,16C0,16.4,0.2,16.8,0.5,17z"/>
</g>
</svg>
