<?xml version="1.0" encoding="utf-8"?>
<!-- Generator: Adobe Illustrator 17.1.0, SVG Export Plug-In . SVG Version: 6.00 Build 0)  -->
<!DOCTYPE svg PUBLIC "-//W3C//DTD SVG 1.1//EN" "http://www.w3.org/Graphics/SVG/1.1/DTD/svg11.dtd">
<svg version="1.1" id="Layer_1" xmlns="http://www.w3.org/2000/svg" xmlns:xlink="http://www.w3.org/1999/xlink" x="0px" y="0px"
	 viewBox="0 0 21 27" enable-background="new 0 0 21 27" xml:space="preserve">
<g>
	<path fill="#474746" d="M18.7,0H2.3C1,0,0,1,0,2.3v21.4C0,25,1,26,2.3,26h16.4c1.3,0,2.3-1,2.3-2.3V2.3C21,1,20,0,18.7,0z
		 M10.5,24.2c-0.4,0-0.6-0.3-0.6-0.6c0-0.4,0.3-0.6,0.6-0.6c0.4,0,0.6,0.3,0.6,0.6C11.1,23.9,10.8,24.2,10.5,24.2z M18,21H3V3h15V21
		z"/>
	<path fill="#2F2F30" d="M18.7,0H2.3C1,0,0,1,0,2.3v1C0,2,1,1,2.3,1h16.4C20,1,21,2,21,3.3v-1C21,1,20,0,18.7,0z"/>
	<rect x="3" y="21" fill="#2F2F30" width="15" height="1"/>
	<rect x="3" y="3" fill="#FFFFFF" width="15" height="1"/>
	<path fill="#2F2F30" d="M10.5,24.2c-0.4,0-0.6-0.3-0.6-0.6v1c0,0.4,0.3,0.6,0.6,0.6c0.4,0,0.6-0.3,0.6-0.6v-1
		C11.1,23.9,10.8,24.2,10.5,24.2z"/>
	<g>
		<path fill="#FFFFFF" d="M18.7,26H2.3C1,26,0,25,0,23.7v1C0,26,1,27,2.3,27h16.4c1.3,0,2.3-1,2.3-2.3v-1C21,25,20,26,18.7,26z"/>
	</g>
</g>
</svg>
