<?xml version="1.0" encoding="utf-8"?>
<!-- Generator: Adobe Illustrator 17.1.0, SVG Export Plug-In . SVG Version: 6.00 Build 0)  -->
<!DOCTYPE svg PUBLIC "-//W3C//DTD SVG 1.1//EN" "http://www.w3.org/Graphics/SVG/1.1/DTD/svg11.dtd">
<svg version="1.1" id="Layer_1" xmlns="http://www.w3.org/2000/svg" xmlns:xlink="http://www.w3.org/1999/xlink" x="0px" y="0px"
	 viewBox="0 0 27 24" enable-background="new 0 0 27 24" xml:space="preserve">
<g>
	<path fill="#FFFFFF" d="M26.3,2.4c-0.7,0.4-1.5,0.8-2.4,1C24.6,3.4,25.4,3.2,26,3C26.1,2.8,26.2,2.6,26.3,2.4z"/>
	<path fill="#FFFFFF" d="M4.3,15.4c-0.1,0-0.1,0-0.2,0c-0.4,0-0.7,0-1-0.1c0.5,1.4,1.5,2.6,2.8,3.3c0.9-0.4,1.6-0.9,2.4-1.4
		C6.6,17.2,5.3,16.5,4.3,15.4z"/>
	<path fill="#FFFFFF" d="M13.3,6.8c0-0.1,0-0.2,0-0.3C13.2,6.6,13.2,6.7,13.3,6.8C13.2,6.8,13.3,6.8,13.3,6.8z"/>
	<path fill="#FFFFFF" d="M3.5,14.4c-0.2-0.3-0.4-0.7-0.5-1c0.3,0.1,0.7,0.1,1,0.1c0.5,0,1-0.1,1.5-0.2c-1.8-0.4-3.3-1.6-4-3.3
		C1.4,9.9,1.2,9.8,1.1,9.7c0,0,0,0,0,0.1C1.1,11.7,2,13.4,3.5,14.4z"/>
	<path fill="#FFFFFF" d="M3.6,8.4C2.4,7.6,1.5,6.3,1.2,4.8c-0.1,0.3-0.1,0.7-0.1,1c0,0.8,0.2,1.5,0.4,2.1C2.2,8.2,2.9,8.4,3.6,8.4z"
		/>
	<path fill="#FFFFFF" d="M24.2,5.5c0,0.2,0,0.5,0,0.7c0,7.3-5.6,15.8-15.8,15.8c-1.6,0-3.2-0.2-4.6-0.7c-0.8,0.2-1.7,0.3-2.5,0.3
		c-0.4,0-0.9,0-1.3-0.1C2.4,23.1,5.4,24,8.5,24c10.2,0,15.8-8.5,15.8-15.8c0-0.2,0-0.5,0-0.7c1.1-0.8,2-1.8,2.8-2.9
		C26.2,5,25.3,5.2,24.2,5.5C24.3,5.4,24.3,5.4,24.2,5.5z"/>
</g>
<path fill="#474646" d="M27.1,2.6c-1,0.4-2.1,0.7-3.2,0.9c1.1-0.7,2-1.8,2.4-3.1c-1.1,0.6-2.3,1.1-3.5,1.3c-1-1.1-2.5-1.8-4.1-1.8
	c-3.1,0-5.6,2.5-5.6,5.6c0,0.4,0,0.9,0.1,1.3C8.7,6.6,4.6,4.4,1.9,1C1.4,1.8,1.1,2.8,1.1,3.8c0,1.9,1,3.6,2.5,4.6
	c-0.9,0-1.8-0.3-2.5-0.7c0,0,0,0,0,0.1c0,2.7,1.9,4.9,4.5,5.4c-0.5,0.1-1,0.2-1.5,0.2c-0.4,0-0.7,0-1-0.1c0.7,2.2,2.8,3.8,5.2,3.9
	c-1.9,1.5-4.3,2.4-6.9,2.4c-0.4,0-0.9,0-1.3-0.1C2.5,21.1,5.4,22,8.5,22c10.2,0,15.8-8.5,15.8-15.8c0-0.2,0-0.5,0-0.7
	C25.4,4.7,26.3,3.7,27.1,2.6z"/>
<g opacity="0.3">
	<g>
		<path d="M24.3,6.5C24.3,6.5,24.3,6.5,24.3,6.5C24.3,6.5,24.3,6.5,24.3,6.5C24.3,6.5,24.3,6.5,24.3,6.5z"/>
		<path d="M3.5,14.4c0.2,0,0.4,0.1,0.6,0.1c0.5,0,1-0.1,1.5-0.2c-0.7-0.1-1.4-0.5-2-0.9c-0.2,0-0.3,0-0.5,0
			C3.2,13.7,3.3,14.1,3.5,14.4z"/>
		<path d="M25.4,3.2c-0.4,0.5-0.9,0.9-1.5,1.3c0.7-0.1,1.4-0.2,2.1-0.5c0.4-0.4,0.8-0.9,1.1-1.4C26.5,2.8,25.9,3,25.4,3.2z"/>
		<path d="M1.9,2c2.7,3.4,6.8,5.6,11.4,5.8c-0.1-0.3-0.1-0.7-0.1-1C8.6,6.5,4.6,4.3,1.9,1C1.4,1.8,1.1,2.8,1.1,3.8
			c0,0.2,0,0.3,0,0.5C1.2,3.5,1.5,2.7,1.9,2z"/>
		<path d="M8.2,18.2c-0.4,0-0.8-0.1-1.2-0.2c-1.7,1-3.6,1.6-5.7,1.6c-0.4,0-0.9,0-1.3-0.1c0.6,0.4,1.3,0.7,1.9,1.1
			C4.3,20.4,6.5,19.6,8.2,18.2z"/>
		<path d="M18.7,1c1.6,0,3,0.7,4.1,1.8c1-0.2,2-0.5,2.8-1c0.3-0.4,0.5-0.9,0.7-1.4c-1.1,0.6-2.3,1.1-3.5,1.3c-1-1.1-2.5-1.8-4.1-1.8
			c-3.1,0-5.6,2.5-5.6,5.6c0,0.2,0,0.3,0,0.5C13.5,3.2,15.9,1,18.7,1z"/>
		<path d="M3.6,9.4C3.1,9.1,2.7,8.7,2.3,8.2C1.9,8.1,1.5,8,1.1,7.7c0,0,0,0,0,0.1c0,0.3,0,0.7,0.1,1C1.9,9.2,2.7,9.4,3.6,9.4z"/>
	</g>
	<g>
		<path fill="#010101" d="M24.3,6.5C24.3,6.5,24.3,6.5,24.3,6.5C24.3,6.5,24.3,6.5,24.3,6.5C24.3,6.5,24.3,6.5,24.3,6.5z"/>
		<path fill="#010101" d="M3.5,14.4c0.2,0,0.4,0.1,0.6,0.1c0.5,0,1-0.1,1.5-0.2c-0.7-0.1-1.4-0.5-2-0.9c-0.2,0-0.3,0-0.5,0
			C3.2,13.7,3.3,14.1,3.5,14.4z"/>
		<path fill="#010101" d="M25.4,3.2c-0.4,0.5-0.9,0.9-1.5,1.3c0.7-0.1,1.4-0.2,2.1-0.5c0.4-0.4,0.8-0.9,1.1-1.4
			C26.5,2.8,25.9,3,25.4,3.2z"/>
		<path fill="#010101" d="M1.9,2c2.7,3.4,6.8,5.6,11.4,5.8c-0.1-0.3-0.1-0.7-0.1-1C8.6,6.5,4.6,4.3,1.9,1C1.4,1.8,1.1,2.8,1.1,3.8
			c0,0.2,0,0.3,0,0.5C1.2,3.5,1.5,2.7,1.9,2z"/>
		<path fill="#010101" d="M8.2,18.2c-0.4,0-0.8-0.1-1.2-0.2c-1.7,1-3.6,1.6-5.7,1.6c-0.4,0-0.9,0-1.3-0.1c0.6,0.4,1.3,0.7,1.9,1.1
			C4.3,20.4,6.5,19.6,8.2,18.2z"/>
		<path fill="#010101" d="M18.7,1c1.6,0,3,0.7,4.1,1.8c1-0.2,2-0.5,2.8-1c0.3-0.4,0.5-0.9,0.7-1.4c-1.1,0.6-2.3,1.1-3.5,1.3
			c-1-1.1-2.5-1.8-4.1-1.8c-3.1,0-5.6,2.5-5.6,5.6c0,0.2,0,0.3,0,0.5C13.5,3.2,15.9,1,18.7,1z"/>
		<path fill="#010101" d="M3.6,9.4C3.1,9.1,2.7,8.7,2.3,8.2C1.9,8.1,1.5,8,1.1,7.7c0,0,0,0,0,0.1c0,0.3,0,0.7,0.1,1
			C1.9,9.2,2.7,9.4,3.6,9.4z"/>
	</g>
</g>
</svg>
