<?xml version="1.0" encoding="utf-8"?>
<!-- Generator: Adobe Illustrator 17.1.0, SVG Export Plug-In . SVG Version: 6.00 Build 0)  -->
<!DOCTYPE svg PUBLIC "-//W3C//DTD SVG 1.1//EN" "http://www.w3.org/Graphics/SVG/1.1/DTD/svg11.dtd">
<svg version="1.1" id="Layer_1" xmlns="http://www.w3.org/2000/svg" xmlns:xlink="http://www.w3.org/1999/xlink" x="0px" y="0px"
	 viewBox="0 0 25 30" enable-background="new 0 0 25 30" xml:space="preserve">
<g>
	<path fill="#FFFFFF" d="M8.6,6.3c-1.7,0-3.1,1.4-3.1,3.1c0,0.3,0.1,0.6,0.2,0.9c0.4-1.3,1.6-2.2,3-2.2c1.4,0,2.6,0.9,3,2.2
		c0.1-0.3,0.2-0.6,0.2-0.9C11.7,7.7,10.3,6.3,8.6,6.3z"/>
	<path fill="#FFFFFF" d="M8.8,28.2C7.1,24.8,0.7,13.5,0.1,9.4C0,9.8,0,10.2,0,10.7c0,3.5,7,15.9,8.8,19.4c1.8-3.5,8.8-15.9,8.8-19.4
		c0-0.4,0-0.9-0.1-1.3C16.9,13.5,10.5,24.8,8.8,28.2z"/>
</g>
<path fill="#474646" d="M8.8,0C5.3,0,0,1.8,0,8.8c0,3.5,7,15.9,8.8,19.4c1.8-3.5,8.8-15.9,8.8-19.4C17.6,1.8,12.3,0,8.8,0z
	 M8.6,12.5c-1.7,0-3.1-1.4-3.1-3.1c0-1.7,1.4-3.1,3.1-3.1s3.1,1.4,3.1,3.1C11.7,11.1,10.3,12.5,8.6,12.5z"/>
<g opacity="0.3">
	<path fill="#010101" d="M8.8,2c3.3,0,8.1,1.5,8.7,7.5c0-0.2,0.1-0.5,0.1-0.7c0-7-5.3-8.8-8.8-8.8S0,1.8,0,8.8C0,9,0,9.2,0.1,9.5
		C0.7,3.5,5.5,2,8.8,2z"/>
	<path fill="#010101" d="M8.6,14.5c1.7,0,3.1-1.4,3.1-3.1c0-0.3-0.1-0.7-0.2-1c-0.4,1.2-1.6,2.1-3,2.1s-2.5-0.9-3-2.1
		c-0.1,0.3-0.2,0.6-0.2,1C5.5,13.1,6.9,14.5,8.6,14.5z"/>
</g>
<g>
	<path fill="#FFFFFF" d="M19.6,8.4c0-0.6,0-1.1-0.1-1.6c-0.2,0-0.3-0.1-0.5-0.1c0.3,0.7,0.5,1.5,0.5,2.4C19.6,8.8,19.6,8.6,19.6,8.4
		z"/>
	<path fill="#FFFFFF" d="M19.6,10.8c-0.1,0.4-0.2,1-0.4,1.6c0.3,0.3,0.5,0.6,0.7,1c0.1-0.3,0.2-0.7,0.2-1
		C20.1,11.8,19.9,11.2,19.6,10.8z"/>
	<path fill="#FFFFFF" d="M17.7,28c-0.6-1.1-1.7-3.2-3-5.6c-0.2,0.3-0.3,0.7-0.5,1c1.4,2.8,2.9,5.4,3.5,6.6
		c1.5-2.9,7.3-13.2,7.3-16.1c0-0.5,0-0.9-0.1-1.3C24.2,16.2,19,25.3,17.7,28z"/>
</g>
<g>
	<path fill="#474646" d="M19,4.7c0.4,1,0.6,2.3,0.6,3.7c0,0.5-0.2,1.2-0.4,2c0.6,0.5,0.9,1.2,0.9,2c0,1.4-1.2,2.6-2.6,2.6
		c-0.1,0-0.1,0-0.1,0c-1,2.1-2.1,4.3-3.2,6.4c1.4,2.8,2.9,5.4,3.5,6.6c1.5-2.9,7.3-13.2,7.3-16.1C25,6.8,21.8,5.1,19,4.7z"/>
</g>
<g opacity="0.3">
	<path d="M24.9,12.6c0.1-0.3,0.1-0.5,0.1-0.7c0-5-3.2-6.8-6-7.2c0.2,0.6,0.4,1.3,0.5,2.1C21.9,7.2,24.4,8.8,24.9,12.6z"/>
	<path d="M19.5,9.1c-0.1,0.4-0.2,0.8-0.3,1.3c0.1,0.1,0.3,0.3,0.4,0.4c0-0.2,0-0.3,0-0.4C19.6,9.9,19.6,9.5,19.5,9.1z"/>
	<path d="M17.4,17c0,0,0.1,0,0.1,0c1.4,0,2.6-1.2,2.6-2.6c0-0.4-0.1-0.7-0.2-1c-0.4,0.9-1.3,1.6-2.4,1.6c-0.1,0-0.1,0-0.1,0
		c-1,2.1-2.1,4.3-3.2,6.4c0.2,0.3,0.3,0.7,0.5,1C15.6,20.6,16.6,18.7,17.4,17z"/>
</g>
</svg>
