<?xml version="1.0" encoding="utf-8"?>
<!-- Generator: Adobe Illustrator 17.1.0, SVG Export Plug-In . SVG Version: 6.00 Build 0)  -->
<!DOCTYPE svg PUBLIC "-//W3C//DTD SVG 1.1//EN" "http://www.w3.org/Graphics/SVG/1.1/DTD/svg11.dtd">
<svg version="1.1" id="Layer_1" xmlns="http://www.w3.org/2000/svg" xmlns:xlink="http://www.w3.org/1999/xlink" x="0px" y="0px"
	 viewBox="0 0 18 25" enable-background="new 0 0 18 25" xml:space="preserve">
<g>
	<polygon fill="#FFFFFF" points="5.6,8.8 5.6,8.4 5.6,8.1 5.6,8.8 	"/>
	<path fill="#FFFFFF" d="M5.6,4.1l0,1.8l0,0.7c1.9,0,4.1-0.3,4.8,1c0.2-0.3,0.3-0.8,0.3-1.3C10.7,3.7,7.9,4.1,5.6,4.1z"/>
	<path fill="#FFFFFF" d="M5.6,12.8l0,5.6h0l0-3.1c2.4,0,5.4-0.4,6.3,1.5c0.1-0.3,0.2-0.7,0.2-1.2C12.2,12.2,8.4,12.8,5.6,12.8z"/>
	<path fill="#FFFFFF" d="M13.4,10.1c0.2,0.1,1.4,0.5,1.8,0.7c0.1,0.1,0.2,0.1,0.3,0.2c0.7-0.8,1-1.9,1-3.5c0-0.4,0-0.8-0.1-1.1
		C16.1,8.2,15.1,9.1,13.4,10.1z"/>
	<path fill="#FFFFFF" d="M9.7,22.5H0L0,25h9.7c4,0,8.3-2.2,8.3-6.5c0-0.6,0-1.1-0.1-1.5C17.3,20.7,13.5,22.5,9.7,22.5z"/>
</g>
<path fill="#484747" d="M0,0h10.2c3.4,0,6.2,1.6,6.2,5c0,2.8-1,3.9-3.1,5.1c0.2,0.1,1.4,0.5,1.8,0.7c0.6,0.3,1,0.6,1.4,1.1
	C17.8,13,18,14.1,18,16c0,4.3-4.2,6.5-8.3,6.5H0L0,0L0,0z M5.6,5.9l0,2.9c2.6,0,5.1,0.3,5.1-2.5c0-2.6-2.8-2.2-5.1-2.2L5.6,5.9
	L5.6,5.9z M5.6,18.4c2.9,0,6.5,0.5,6.5-2.8c0.1-3.4-3.7-2.8-6.5-2.8L5.6,18.4z"/>
<g opacity="0.3">
	<path d="M5.6,18.4l0,2.5c2.9,0,6.5,0.5,6.5-2.8c0-0.5-0.1-1-0.2-1.3C11,18.7,8.1,18.4,5.6,18.4z"/>
	<path d="M13.4,12.6c0.2,0.1,1.4,0.5,1.8,0.7c0.6,0.3,1,0.6,1.4,1.1c0.8,0.8,1.2,1.6,1.3,2.7c0.1-0.3,0.1-0.6,0.1-1
		c0-1.9-0.2-3-1.4-4.2c-0.3-0.4-0.7-0.6-1.1-0.9C15,11.5,14.3,12,13.4,12.6z"/>
	<path d="M0,2.5h10.2c3,0,5.5,1.3,6.1,3.9c0.1-0.4,0.1-0.9,0.1-1.4c0-3.3-2.9-5-6.2-5H0l0,22.5h0L0,2.5z"/>
	<polygon points="5.6,8.1 5.6,6.6 5.6,6.6 	"/>
	<path d="M10.7,8.8c0-0.5-0.1-0.9-0.3-1.2C9.7,9.1,7.7,8.8,5.6,8.8l0,2.5C8.2,11.3,10.7,11.7,10.7,8.8z"/>
</g>
</svg>
